<?xml version="1.0" encoding="UTF-8"?>
<!DOCTYPE svg PUBLIC "-//W3C//DTD SVG 1.1//EN" "http://www.w3.org/Graphics/SVG/1.1/DTD/svg11.dtd">
<!-- Creator: CorelDRAW 2021 (64-Bit) -->
<svg xmlns="http://www.w3.org/2000/svg" xml:space="preserve" width="49.771mm" height="13.6278mm" version="1.1" style="shape-rendering:geometricPrecision; text-rendering:geometricPrecision; image-rendering:optimizeQuality; fill-rule:evenodd; clip-rule:evenodd"
viewBox="0 0 2649.66 725.5"
 xmlns:xlink="http://www.w3.org/1999/xlink"
 xmlns:xodm="http://www.corel.com/coreldraw/odm/2003">
 <defs>
  <style type="text/css">
   <![CDATA[
    .fil0 {fill:#56698F}
   ]]>
  </style>
 </defs>
 <g id="Capa_x0020_1">
  <metadata id="CorelCorpID_0Corel-Layer"/>
  <path class="fil0" d="M377.44 216.03l0 356.54 -92.86 0 0 -356.54 92.86 0zm28.4 -70.76l-72.57 59.5 -44.62 0 38.77 -59.5 78.43 0zm215.53 70.76l0 356.54 -81.14 0 -48.23 -162.12 0 162.12 -77.53 0 0 -356.54 77.53 0 51.84 160.54 0 -160.54 77.53 0zm37.18 0l69.34 0c44.7,0 74.97,2.03 90.75,6.16 15.78,4.13 27.8,10.89 35.98,20.28 8.19,9.39 13.37,19.83 15.4,31.32 2.03,11.57 3.08,34.18 3.08,67.98l0 124.86c0,32.01 -1.5,53.41 -4.51,64.16 -3,10.82 -8.26,19.31 -15.7,25.39 -7.51,6.08 -16.75,10.29 -27.8,12.77 -10.97,2.4 -27.57,3.6 -49.73,3.6l-116.82 0 0 -356.54zm92.86 60.85l0 234.84c13.14,0 21.26,-2.7 24.27,-8.04 3.08,-5.41 4.58,-19.99 4.58,-43.8l0 -138.68c0,-16.15 -0.52,-26.52 -1.5,-31.1 -1.05,-4.58 -3.31,-7.89 -6.98,-9.99 -3.6,-2.18 -10.37,-3.23 -20.36,-3.23zm249.11 -60.85l0 356.54 -92.86 0 0 -356.54 92.86 0zm253.39 155.51l-92.86 0 0 -61.9c0,-18.03 -0.97,-29.22 -2.93,-33.73 -1.95,-4.43 -6.31,-6.69 -13,-6.69 -7.52,0 -12.32,2.7 -14.35,8.11 -2.03,5.48 -3.08,17.21 -3.08,35.23l0 165.42c0,17.36 1.05,28.62 3.08,33.95 2.03,5.26 6.61,7.89 13.68,7.89 6.84,0 11.34,-2.63 13.44,-7.96 2.11,-5.26 3.16,-17.73 3.16,-37.34l0 -44.85 92.86 0 0 13.89c0,36.96 -2.63,63.18 -7.82,78.58 -5.19,15.48 -16.75,29 -34.56,40.65 -17.88,11.64 -39.82,17.42 -65.96,17.42 -27.12,0 -49.51,-4.88 -67.16,-14.72 -17.58,-9.84 -29.3,-23.44 -35.01,-40.87 -5.71,-17.43 -8.57,-43.57 -8.57,-78.5l0 -104.12c0,-25.69 0.91,-44.93 2.63,-57.77 1.8,-12.85 6.99,-25.24 15.78,-37.11 8.71,-11.87 20.8,-21.26 36.28,-28.09 15.48,-6.84 33.28,-10.22 53.41,-10.22 27.27,0 49.81,5.26 67.61,15.85 17.73,10.52 29.38,23.66 35.01,39.44 5.56,15.77 8.34,40.26 8.34,73.54l0 33.89zm33.2 -155.51l154.61 0 0 71.22 -61.75 0 0 68.06 57.69 0 0 67.61 -57.69 0 0 78.43 68.06 0 0 71.22 -160.91 0 0 -356.54zm379.9 0l0 238.29c0,35.68 -0.38,58.6 -1.13,68.81 -0.75,10.22 -4.13,19.38 -10.07,27.65 -6.01,8.19 -14.12,13.89 -24.27,17.05 -10.14,3.16 -25.46,4.73 -45.9,4.73l-46.2 0 0 -62.43c5.48,0.45 9.47,0.68 11.95,0.68 6.46,0 11.64,-1.58 15.4,-4.81 3.76,-3.23 5.94,-7.21 6.46,-11.95 0.6,-4.66 0.9,-13.75 0.9,-27.27l0 -250.76 92.86 0zm196 0l53.04 356.54 -94.74 0 -5.03 -64.01 -33.43 0 -5.03 64.01 -95.93 0 47.03 -356.54 134.09 0zm-49.21 229.43c-4.43,-40.42 -9.09,-90.45 -14.05,-150.17 -9.16,68.51 -14.95,118.54 -17.42,150.17l31.47 0zm328.22 -229.43l-46.95 356.54 -140.4 0 -53.79 -356.54 97.81 0c11.04,98.34 19.08,181.5 24.11,249.49 4.96,-68.74 10.07,-129.74 15.25,-183l6.16 -66.49 97.81 0zm170 0l53.04 356.54 -94.74 0 -5.03 -64.01 -33.43 0 -5.03 64.01 -95.93 0 47.03 -356.54 134.09 0zm-49.21 229.43c-4.43,-40.42 -9.09,-90.45 -14.05,-150.17 -9.16,68.51 -14.95,118.54 -17.42,150.17l31.47 0zm-2018.35 -445.46l2160.73 0c134.46,0 244.46,110.01 244.46,244.46l0 236.57c0,134.46 -110.01,244.46 -244.46,244.46l-2160.73 0c-134.46,0 -244.46,-110.01 -244.46,-244.46l0 -236.57c0,-134.46 110.01,-244.46 244.46,-244.46z"/>
 </g>
</svg>
